<svg width="30" height="30" viewBox="0 0 30 30" fill="none" xmlns="http://www.w3.org/2000/svg">
<path d="M18.5858 14L16.2929 11.7071C15.9024 11.3166 15.9024 10.6834 16.2929 10.2929C16.6834 9.90237 17.3166 9.90237 17.7071 10.2929L21.7071 14.2929C22.0976 14.6834 22.0976 15.3166 21.7071 15.7071L17.7071 19.7071C17.3166 20.0976 16.6834 20.0976 16.2929 19.7071C15.9024 19.3166 15.9024 18.6834 16.2929 18.2929L18.5858 16H8.99853C8.44706 16 8 15.5523 8 15C8 14.4477 8.44706 14 8.99853 14H18.5858Z" fill="white"/>
<mask id="mask0" style="mask-type:alpha" maskUnits="userSpaceOnUse" x="8" y="10" width="14" height="10">
<path d="M18.5858 14L16.2929 11.7071C15.9024 11.3166 15.9024 10.6834 16.2929 10.2929C16.6834 9.90237 17.3166 9.90237 17.7071 10.2929L21.7071 14.2929C22.0976 14.6834 22.0976 15.3166 21.7071 15.7071L17.7071 19.7071C17.3166 20.0976 16.6834 20.0976 16.2929 19.7071C15.9024 19.3166 15.9024 18.6834 16.2929 18.2929L18.5858 16H8.99853C8.44706 16 8 15.5523 8 15C8 14.4477 8.44706 14 8.99853 14H18.5858Z" fill="white"/>
</mask>
<g mask="url(#mask0)">
<rect width="30" height="30" fill="white"/>
</g>
</svg>
