<svg width="66" height="79" viewBox="0 0 66 79" fill="none" xmlns="http://www.w3.org/2000/svg">
<path fill-rule="evenodd" clip-rule="evenodd" d="M63.9999 17H57V15H63.9999C65.1045 15 65.9999 15.8954 65.9999 17V75C65.9999 76.1046 65.1045 77 63.9999 77H16.2856C15.1811 77 14.2856 76.1046 14.2856 75V68H16.2856V75H63.9999V17Z" fill="#C0D1ED"/>
<path fill-rule="evenodd" clip-rule="evenodd" d="M31.8571 9C31.8571 8.44772 32.3049 8 32.8571 8H56.7143C57.8189 8 58.7143 8.89543 58.7143 10V68C58.7143 69.1046 57.8189 70 56.7143 70H9C7.89543 70 7 69.1046 7 68V36C7 35.4477 7.44772 35 8 35C8.55228 35 9 35.4477 9 36V68H56.7143V10H32.8571C32.3049 10 31.8571 9.55228 31.8571 9Z" fill="#C0D1ED"/>
<path d="M31 18.5C31 26.5081 24.5081 33 16.5 33C8.49187 33 2 26.5081 2 18.5C2 10.4919 8.49187 4 16.5 4C24.5081 4 31 10.4919 31 18.5Z" fill="white"/>
<path fill-rule="evenodd" clip-rule="evenodd" d="M33 18.5C33 27.6127 25.6127 35 16.5 35C7.3873 35 0 27.6127 0 18.5C0 9.3873 7.3873 2 16.5 2C25.6127 2 33 9.3873 33 18.5ZM16.5 33C24.5081 33 31 26.5081 31 18.5C31 10.4919 24.5081 4 16.5 4C8.49187 4 2 10.4919 2 18.5C2 26.5081 8.49187 33 16.5 33Z" fill="#DCE7EF"/>
<path d="M11.4698 12H13.6395L18.1257 24H15.9397L14.8467 20.8235H10.1974L9.10442 24H7L11.4698 12ZM10.7521 19.2269H14.3084L12.5628 14.0672H12.5139L10.7521 19.2269Z" fill="#BFD0ED"/>
<path d="M22.0571 13.5H23.721V16.895H27V18.6092H23.721V22.0042H22.0571V18.6092H18.7781V16.895H22.0571V13.5Z" fill="#BFD0ED"/>
<path d="M13 42H23V45H13V42Z" fill="#DCE7EF"/>
<path d="M13 60H23V63H13V60Z" fill="#DCE7EF"/>
<path d="M26 42H41V45H26V42Z" fill="#DCE7EF"/>
<path d="M26 60H41V63H26V60Z" fill="#DCE7EF"/>
<path d="M13 51H41V54H13V51Z" fill="#DCE7EF"/>
<path fill-rule="evenodd" clip-rule="evenodd" d="M54.7071 38.2929C55.0976 38.6834 55.0976 39.3166 54.7071 39.7071L47.5 46.9142L43.2929 42.7071C42.9024 42.3166 42.9024 41.6834 43.2929 41.2929C43.6834 40.9024 44.3166 40.9024 44.7071 41.2929L47.5 44.0858L53.2929 38.2929C53.6834 37.9024 54.3166 37.9024 54.7071 38.2929Z" fill="#C0D1ED"/>
<path fill-rule="evenodd" clip-rule="evenodd" d="M54.7071 47.2929C55.0976 47.6834 55.0976 48.3166 54.7071 48.7071L47.5 55.9142L43.2929 51.7071C42.9024 51.3166 42.9024 50.6834 43.2929 50.2929C43.6834 49.9024 44.3166 49.9024 44.7071 50.2929L47.5 53.0858L53.2929 47.2929C53.6834 46.9024 54.3166 46.9024 54.7071 47.2929Z" fill="#C0D1ED"/>
<path fill-rule="evenodd" clip-rule="evenodd" d="M54.7071 56.2929C55.0976 56.6834 55.0976 57.3166 54.7071 57.7071L47.5 64.9142L43.2929 60.7071C42.9024 60.3166 42.9024 59.6834 43.2929 59.2929C43.6834 58.9024 44.3166 58.9024 44.7071 59.2929L47.5 62.0858L53.2929 56.2929C53.6834 55.9024 54.3166 55.9024 54.7071 56.2929Z" fill="#C0D1ED"/>
</svg>
