<svg width="66" height="78" viewBox="0 0 66 78" fill="none" xmlns="http://www.w3.org/2000/svg">
<rect x="8" y="8" width="49" height="60" fill="white"/>
<rect x="16" y="15" width="49" height="60" fill="white"/>
<path fill-rule="evenodd" clip-rule="evenodd" d="M63.9999 16.5H57V14.5H63.9999C65.1045 14.5 65.9999 15.3954 65.9999 16.5V74.5C65.9999 75.6046 65.1045 76.5 63.9999 76.5H16.2856C15.1811 76.5 14.2856 75.6046 14.2856 74.5V67.5H16.2856V74.5H63.9999V16.5Z" fill="#99CDFC"/>
<path fill-rule="evenodd" clip-rule="evenodd" d="M31.8571 8.5C31.8571 7.94772 32.3049 7.5 32.8571 7.5H56.7143C57.8189 7.5 58.7143 8.39543 58.7143 9.5V67.5C58.7143 68.6046 57.8189 69.5 56.7143 69.5H9C7.89543 69.5 7 68.6046 7 67.5V35.5C7 34.9477 7.44772 34.5 8 34.5C8.55228 34.5 9 34.9477 9 35.5V67.5H56.7143V9.5H32.8571C32.3049 9.5 31.8571 9.05228 31.8571 8.5Z" fill="#99CDFC"/>
<path d="M31 18C31 26.0081 24.5081 32.5 16.5 32.5C8.49187 32.5 2 26.0081 2 18C2 9.99187 8.49187 3.5 16.5 3.5C24.5081 3.5 31 9.99187 31 18Z" fill="white"/>
<path fill-rule="evenodd" clip-rule="evenodd" d="M33 18C33 27.1127 25.6127 34.5 16.5 34.5C7.3873 34.5 0 27.1127 0 18C0 8.8873 7.3873 1.5 16.5 1.5C25.6127 1.5 33 8.8873 33 18ZM16.5 32.5C24.5081 32.5 31 26.0081 31 18C31 9.99187 24.5081 3.5 16.5 3.5C8.49187 3.5 2 9.99187 2 18C2 26.0081 8.49187 32.5 16.5 32.5Z" fill="#99CDFC"/>
<path d="M11.4698 11.5H13.6395L18.1257 23.5H15.9397L14.8467 20.3235H10.1974L9.10442 23.5H7L11.4698 11.5ZM10.7521 18.7269H14.3084L12.5628 13.5672H12.5139L10.7521 18.7269Z" fill="#99CDFC"/>
<path d="M22.0571 13H23.721V16.395H27V18.1092H23.721V21.5042H22.0571V18.1092H18.7781V16.395H22.0571V13Z" fill="#99CDFC"/>
<path d="M13 41.5H23V44.5H13V41.5Z" fill="#DAEFFF"/>
<path d="M13 59.5H23V62.5H13V59.5Z" fill="#DAEFFF"/>
<path d="M26 41.5H41V44.5H26V41.5Z" fill="#DAEFFF"/>
<path d="M26 59.5H41V62.5H26V59.5Z" fill="#DAEFFF"/>
<path d="M13 50.5H41V53.5H13V50.5Z" fill="#DAEFFF"/>
<path fill-rule="evenodd" clip-rule="evenodd" d="M54.7071 37.2929C55.0976 37.6834 55.0976 38.3166 54.7071 38.7071L47.5 45.9142L43.2929 41.7071C42.9024 41.3166 42.9024 40.6834 43.2929 40.2929C43.6834 39.9024 44.3166 39.9024 44.7071 40.2929L47.5 43.0858L53.2929 37.2929C53.6834 36.9024 54.3166 36.9024 54.7071 37.2929Z" fill="#99CDFC"/>
<path fill-rule="evenodd" clip-rule="evenodd" d="M54.7071 46.7929C55.0976 47.1834 55.0976 47.8166 54.7071 48.2071L47.5 55.4142L43.2929 51.2071C42.9024 50.8166 42.9024 50.1834 43.2929 49.7929C43.6834 49.4024 44.3166 49.4024 44.7071 49.7929L47.5 52.5858L53.2929 46.7929C53.6834 46.4024 54.3166 46.4024 54.7071 46.7929Z" fill="#99CDFC"/>
<path fill-rule="evenodd" clip-rule="evenodd" d="M54.7071 55.7929C55.0976 56.1834 55.0976 56.8166 54.7071 57.2071L47.5 64.4142L43.2929 60.2071C42.9024 59.8166 42.9024 59.1834 43.2929 58.7929C43.6834 58.4024 44.3166 58.4024 44.7071 58.7929L47.5 61.5858L53.2929 55.7929C53.6834 55.4024 54.3166 55.4024 54.7071 55.7929Z" fill="#99CDFC"/>
</svg>
