<svg width="78" height="76" viewBox="0 0 78 76" fill="none" xmlns="http://www.w3.org/2000/svg">
<path d="M67 67C67 66.4477 67.4477 66 68 66H77C77.5523 66 78 66.4477 78 67V73C78 73.5523 77.5523 74 77 74H68C67.4477 74 67 73.5523 67 73V67Z" fill="#DAEFFF"/>
<path fill-rule="evenodd" clip-rule="evenodd" d="M69 68V72H76V68H69ZM68 66C67.4477 66 67 66.4477 67 67V73C67 73.5523 67.4477 74 68 74H77C77.5523 74 78 73.5523 78 73V67C78 66.4477 77.5523 66 77 66H68Z" fill="#99CDFC"/>
<path d="M11 67C11 66.4477 10.5523 66 10 66H1C0.447716 66 0 66.4477 0 67V73C0 73.5523 0.447716 74 1 74H10C10.5523 74 11 73.5523 11 73V67Z" fill="#DAEFFF"/>
<path fill-rule="evenodd" clip-rule="evenodd" d="M9 68V72H2V68H9ZM10 66C10.5523 66 11 66.4477 11 67V73C11 73.5523 10.5523 74 10 74H1C0.447716 74 0 73.5523 0 73V67C0 66.4477 0.447715 66 1 66H10Z" fill="#99CDFC"/>
<path d="M67 37C67 36.4477 67.4477 36 68 36H77C77.5523 36 78 36.4477 78 37V43C78 43.5523 77.5523 44 77 44H68C67.4477 44 67 43.5523 67 43V37Z" fill="white"/>
<path fill-rule="evenodd" clip-rule="evenodd" d="M69 38V42H76V38H69ZM68 36C67.4477 36 67 36.4477 67 37V43C67 43.5523 67.4477 44 68 44H77C77.5523 44 78 43.5523 78 43V37C78 36.4477 77.5523 36 77 36H68Z" fill="#99CDFC"/>
<path d="M11 37C11 36.4477 10.5523 36 10 36H1C0.447716 36 0 36.4477 0 37V43C0 43.5523 0.447716 44 1 44H10C10.5523 44 11 43.5523 11 43V37Z" fill="white"/>
<path fill-rule="evenodd" clip-rule="evenodd" d="M9 38V42H2V38H9ZM10 36C10.5523 36 11 36.4477 11 37V43C11 43.5523 10.5523 44 10 44H1C0.447716 44 0 43.5523 0 43V37C0 36.4477 0.447715 36 1 36H10Z" fill="#99CDFC"/>
<path d="M67 55C67 54.4477 67.4477 54 68 54H75C75.5523 54 76 54.4477 76 55V61C76 61.5523 75.5523 62 75 62H68C67.4477 62 67 61.5523 67 61V55Z" fill="#DAEFFF"/>
<path fill-rule="evenodd" clip-rule="evenodd" d="M69 56V60H74V56H69ZM68 54C67.4477 54 67 54.4477 67 55V61C67 61.5523 67.4477 62 68 62H75C75.5523 62 76 61.5523 76 61V55C76 54.4477 75.5523 54 75 54H68Z" fill="#99CDFC"/>
<path d="M11 55C11 54.4477 10.5523 54 10 54H3C2.44772 54 2 54.4477 2 55V61C2 61.5523 2.44772 62 3 62H10C10.5523 62 11 61.5523 11 61V55Z" fill="#DAEFFF"/>
<path fill-rule="evenodd" clip-rule="evenodd" d="M9 56V60H4V56H9ZM10 54C10.5523 54 11 54.4477 11 55V61C11 61.5523 10.5523 62 10 62H3C2.44771 62 2 61.5523 2 61V55C2 54.4477 2.44771 54 3 54H10Z" fill="#99CDFC"/>
<path d="M67 49C67 48.4477 67.4477 48 68 48H75C75.5523 48 76 48.4477 76 49V55C76 55.5523 75.5523 56 75 56H68C67.4477 56 67 55.5523 67 55V49Z" fill="white"/>
<path fill-rule="evenodd" clip-rule="evenodd" d="M69 50V54H74V50H69ZM68 48C67.4477 48 67 48.4477 67 49V55C67 55.5523 67.4477 56 68 56H75C75.5523 56 76 55.5523 76 55V49C76 48.4477 75.5523 48 75 48H68Z" fill="#99CDFC"/>
<path d="M11 49C11 48.4477 10.5523 48 10 48H3C2.44772 48 2 48.4477 2 49V55C2 55.5523 2.44772 56 3 56H10C10.5523 56 11 55.5523 11 55V49Z" fill="white"/>
<path fill-rule="evenodd" clip-rule="evenodd" d="M9 50V54H4V50H9ZM10 48C10.5523 48 11 48.4477 11 49V55C11 55.5523 10.5523 56 10 56H3C2.44771 56 2 55.5523 2 55V49C2 48.4477 2.44771 48 3 48H10Z" fill="#99CDFC"/>
<path d="M67 43C67 42.4477 67.4477 42 68 42H75C75.5523 42 76 42.4477 76 43V49C76 49.5523 75.5523 50 75 50H68C67.4477 50 67 49.5523 67 49V43Z" fill="#DAEFFF"/>
<path fill-rule="evenodd" clip-rule="evenodd" d="M69 44V48H74V44H69ZM68 42C67.4477 42 67 42.4477 67 43V49C67 49.5523 67.4477 50 68 50H75C75.5523 50 76 49.5523 76 49V43C76 42.4477 75.5523 42 75 42H68Z" fill="#99CDFC"/>
<path d="M11 43C11 42.4477 10.5523 42 10 42H3C2.44772 42 2 42.4477 2 43V49C2 49.5523 2.44772 50 3 50H10C10.5523 50 11 49.5523 11 49V43Z" fill="#DAEFFF"/>
<path fill-rule="evenodd" clip-rule="evenodd" d="M9 44V48H4V44H9ZM10 42C10.5523 42 11 42.4477 11 43V49C11 49.5523 10.5523 50 10 50H3C2.44771 50 2 49.5523 2 49V43C2 42.4477 2.44771 42 3 42H10Z" fill="#99CDFC"/>
<path d="M67 31C67 30.4477 67.4477 30 68 30H75C75.5523 30 76 30.4477 76 31V37C76 37.5523 75.5523 38 75 38H68C67.4477 38 67 37.5523 67 37V31Z" fill="#DAEFFF"/>
<path fill-rule="evenodd" clip-rule="evenodd" d="M69 32V36H74V32H69ZM68 30C67.4477 30 67 30.4477 67 31V37C67 37.5523 67.4477 38 68 38H75C75.5523 38 76 37.5523 76 37V31C76 30.4477 75.5523 30 75 30H68Z" fill="#99CDFC"/>
<path d="M11 31C11 30.4477 10.5523 30 10 30H3C2.44772 30 2 30.4477 2 31V37C2 37.5523 2.44772 38 3 38H10C10.5523 38 11 37.5523 11 37V31Z" fill="#DAEFFF"/>
<path fill-rule="evenodd" clip-rule="evenodd" d="M9 32V36H4V32H9ZM10 30C10.5523 30 11 30.4477 11 31V37C11 37.5523 10.5523 38 10 38H3C2.44771 38 2 37.5523 2 37V31C2 30.4477 2.44771 30 3 30H10Z" fill="#99CDFC"/>
<path d="M67 61C67 60.4477 67.4477 60 68 60H75C75.5523 60 76 60.4477 76 61V67C76 67.5523 75.5523 68 75 68H68C67.4477 68 67 67.5523 67 67V61Z" fill="white"/>
<path fill-rule="evenodd" clip-rule="evenodd" d="M69 62V66H74V62H69ZM68 60C67.4477 60 67 60.4477 67 61V67C67 67.5523 67.4477 68 68 68H75C75.5523 68 76 67.5523 76 67V61C76 60.4477 75.5523 60 75 60H68Z" fill="#99CDFC"/>
<path d="M11 61C11 60.4477 10.5523 60 10 60H3C2.44772 60 2 60.4477 2 61V67C2 67.5523 2.44772 68 3 68H10C10.5523 68 11 67.5523 11 67V61Z" fill="white"/>
<path fill-rule="evenodd" clip-rule="evenodd" d="M9 62V66H4V62H9ZM10 60C10.5523 60 11 60.4477 11 61V67C11 67.5523 10.5523 68 10 68H3C2.44771 68 2 67.5523 2 67V61C2 60.4477 2.44771 60 3 60H10Z" fill="#99CDFC"/>
<path d="M10 3C10 2.44772 10.4477 2 11 2H67.0645C67.6168 2 68.0645 2.44772 68.0645 3V73C68.0645 73.5523 67.6168 74 67.0645 74H11C10.4477 74 10 73.5523 10 73V3Z" fill="white"/>
<path fill-rule="evenodd" clip-rule="evenodd" d="M11 0H67.0645C68.7214 0 70.0645 1.34315 70.0645 3V73C70.0645 74.6569 68.7214 76 67.0645 76H11C9.34315 76 8 74.6569 8 73V3C8 1.34315 9.34314 0 11 0ZM11 2C10.4477 2 10 2.44772 10 3V73C10 73.5523 10.4477 74 11 74H67.0645C67.6168 74 68.0645 73.5523 68.0645 73V3C68.0645 2.44772 67.6168 2 67.0645 2H11Z" fill="#99CDFC"/>
<path d="M47 11H62V13H47V11Z" fill="#99CDFC"/>
<path d="M41 16.8065H61.9032V19.129H41V16.8065Z" fill="#99CDFC"/>
<path d="M41 23H61.9032V25.3226H41V23Z" fill="#99CDFC"/>
<path d="M19.796 27.964V26.072C18.6813 25.984 17.7427 25.7127 16.98 25.258C16.2173 24.8033 15.5573 24.246 15 23.586L16.606 22.134C17.0607 22.6913 17.552 23.1387 18.08 23.476C18.6227 23.8133 19.246 24.026 19.95 24.114V19.186C18.366 18.8487 17.222 18.3427 16.518 17.668C15.814 16.9787 15.462 16.0767 15.462 14.962C15.462 13.7887 15.8507 12.8573 16.628 12.168C17.4053 11.4787 18.4613 11.0607 19.796 10.914V9H21.666V10.914C22.6047 11.002 23.4187 11.2367 24.108 11.618C24.812 11.9993 25.4207 12.52 25.934 13.18L24.306 14.522C23.9833 14.0967 23.5947 13.7447 23.14 13.466C22.7 13.1727 22.1647 12.9747 21.534 12.872V17.382C22.3993 17.5727 23.118 17.8 23.69 18.064C24.262 18.328 24.724 18.6287 25.076 18.966C25.4427 19.2887 25.7067 19.67 25.868 20.11C26.0293 20.5353 26.11 21.034 26.11 21.606C26.11 22.794 25.7213 23.784 24.944 24.576C24.1813 25.368 23.0887 25.852 21.666 26.028V27.964H19.796ZM23.8 21.76C23.8 21.2027 23.6387 20.748 23.316 20.396C22.9933 20.0293 22.3993 19.736 21.534 19.516V24.092C22.2527 23.9747 22.81 23.7107 23.206 23.3C23.602 22.8893 23.8 22.376 23.8 21.76ZM17.75 14.852C17.75 15.468 17.926 15.9373 18.278 16.26C18.6447 16.568 19.202 16.8247 19.95 17.03V12.85C19.246 12.9527 18.7033 13.1727 18.322 13.51C17.9407 13.8473 17.75 14.2947 17.75 14.852Z" fill="#99CDFC"/>
<path d="M15 56H28V68H15V56Z" fill="#99CDFC"/>
<path d="M32 46H45V68H32V46Z" fill="#99CDFC"/>
<path d="M50 36H62V68H50V36Z" fill="#99CDFC"/>
</svg>
