<svg width="78" height="77" viewBox="0 0 78 77" fill="none" xmlns="http://www.w3.org/2000/svg">
<path d="M57 35.5C57 45.4411 48.9411 53.5 39 53.5C29.0589 53.5 21 45.4411 21 35.5C21 25.5589 29.0589 17.5 39 17.5C48.9411 17.5 57 25.5589 57 35.5Z" fill="white"/>
<path fill-rule="evenodd" clip-rule="evenodd" d="M39 51.5C47.8366 51.5 55 44.3366 55 35.5C55 26.6634 47.8366 19.5 39 19.5C30.1634 19.5 23 26.6634 23 35.5C23 44.3366 30.1634 51.5 39 51.5ZM39 53.5C48.9411 53.5 57 45.4411 57 35.5C57 25.5589 48.9411 17.5 39 17.5C29.0589 17.5 21 25.5589 21 35.5C21 45.4411 29.0589 53.5 39 53.5Z" fill="#0081F9" fill-opacity="0.4"/>
<path d="M2 47.5C2 46.9477 2.44772 46.5 3 46.5H75C75.5523 46.5 76 46.9477 76 47.5V73.5C76 74.0523 75.5523 74.5 75 74.5H3C2.44771 74.5 2 74.0523 2 73.5V47.5Z" fill="white"/>
<path fill-rule="evenodd" clip-rule="evenodd" d="M3 44.5H75C76.6569 44.5 78 45.8431 78 47.5V73.5C78 75.1569 76.6569 76.5 75 76.5H3C1.34314 76.5 0 75.1569 0 73.5V47.5C0 45.8431 1.34315 44.5 3 44.5ZM3 46.5C2.44772 46.5 2 46.9477 2 47.5V73.5C2 74.0523 2.44771 74.5 3 74.5H75C75.5523 74.5 76 74.0523 76 73.5V47.5C76 46.9477 75.5523 46.5 75 46.5H3Z" fill="#99CDFC"/>
<path d="M11 37.3084C11 36.8369 11.3294 36.4294 11.7905 36.3306L38.7905 30.5449C38.9286 30.5153 39.0714 30.5153 39.2095 30.5449L66.2095 36.3306C66.6706 36.4294 67 36.8369 67 37.3084V44.5H11V37.3084Z" fill="#DAEFFF"/>
<path fill-rule="evenodd" clip-rule="evenodd" d="M69 46H9V37.3081C9 35.9704 9.9882 34.8144 11.3714 34.5342L38.3714 29.063C38.7858 28.979 39.2142 28.979 39.6286 29.063L66.6286 34.5342C68.0118 34.8144 69 35.9704 69 37.3081V46ZM11.7905 36.3835C11.3294 36.4769 11 36.8622 11 37.3081V44.1087H67V37.3081C67 36.8622 66.6706 36.4769 66.2095 36.3835L39.2095 30.9123C39.0714 30.8843 38.9286 30.8843 38.7905 30.9123L11.7905 36.3835Z" fill="#99CDFC"/>
<path d="M52.2701 1H40C39.4477 1 39 1.44772 39 2V11.5H52.0599C53.0147 11.5 53.4264 10.2896 52.6696 9.70738L49.4822 7.25556C48.977 6.86695 48.9594 6.11124 49.446 5.69955L52.916 2.76339C53.6271 2.16165 53.2016 1 52.2701 1Z" fill="#99CDFC"/>
<path fill-rule="evenodd" clip-rule="evenodd" d="M38 2C38 0.895431 38.8954 0 40 0H52.2701C54.1332 0 54.9842 2.3233 53.5619 3.52677L50.0919 6.46293L53.2793 8.91475C54.793 10.0791 53.9696 12.5 52.0599 12.5H40V18C40 18.5523 39.5523 19 39 19C38.4477 19 38 18.5523 38 18V2ZM40 10.5H52.0599L48.8725 8.04818C47.8621 7.27097 47.8269 5.75956 48.8 4.93616L52.2701 2H40V10.5Z" fill="#99CDFC"/>
<path d="M15 46.5H21V74.5H15V46.5Z" fill="#DAEFFF"/>
<path fill-rule="evenodd" clip-rule="evenodd" d="M13 44.5H23V76.5H13V44.5ZM15 46.5V74.5H21V46.5H15Z" fill="#99CDFC"/>
<path d="M36 46.5H42V74.5H36V46.5Z" fill="#DAEFFF"/>
<path fill-rule="evenodd" clip-rule="evenodd" d="M34 44.5H44V76.5H34V44.5ZM36 46.5V74.5H42V46.5H36Z" fill="#99CDFC"/>
<path d="M57 46.5H63V74.5H57V46.5Z" fill="#DAEFFF"/>
<path fill-rule="evenodd" clip-rule="evenodd" d="M55 44.5H65V76.5H55V44.5ZM57 46.5V74.5H63V46.5H57Z" fill="#99CDFC"/>
<path d="M67 70.5L67 74.5L11 74.5L11 70.5L67 70.5Z" fill="#DAEFFF"/>
<path fill-rule="evenodd" clip-rule="evenodd" d="M69 68.5L69 76.5L9 76.5L9 68.5L69 68.5ZM67 70.5L11 70.5L11 74.5L67 74.5L67 70.5Z" fill="#99CDFC"/>
</svg>
