<svg width="34" height="39" viewBox="0 0 34 39" fill="none" xmlns="http://www.w3.org/2000/svg">
<path d="M31.3094 29.6983C30.4187 29.6983 29.6629 30.32 29.474 31.1851L22.3889 30.8472C22.4159 30.712 22.4294 30.5769 22.4294 30.4417C22.4294 30.1984 22.3889 29.9551 22.3214 29.7118L24.8991 28.225C25.5603 29.0495 26.7614 29.1711 27.5846 28.5088C28.4079 27.8465 28.5293 26.6435 27.868 25.819C27.2068 24.9945 26.0057 24.8728 25.1825 25.5352C24.4807 26.1029 24.2783 27.0761 24.6831 27.8871L22.1865 29.3333C21.5657 28.0222 20.0137 27.468 18.7182 28.0898C17.5036 28.6575 16.9233 30.0632 17.3686 31.3203L12.7397 32.4557C12.7127 31.8204 12.4428 31.2257 11.9975 30.7661L12.8342 29.6037C13.8193 29.9416 14.899 29.4144 15.2364 28.4277C15.5737 27.441 15.0474 26.3597 14.0623 26.0218C13.0771 25.6838 11.9975 26.211 11.6601 27.1977C11.3767 28.0357 11.7006 28.9549 12.4563 29.4279L11.6871 30.4958C11.1473 30.0903 10.459 29.9145 9.78422 30.0092L8.98799 25.4541C10.3915 25.1432 11.2822 23.751 10.9718 22.3452C10.6614 20.9395 9.27139 20.0474 7.86787 20.3583C7.63845 20.4124 7.42252 20.4935 7.20659 20.6016L5.19578 16.6683C5.62763 16.452 5.97851 16.1141 6.23493 15.7086L7.90836 16.1546C7.89486 16.2493 7.88136 16.3304 7.88136 16.425C7.88136 17.4657 8.71808 18.3173 9.75722 18.3308C10.7964 18.3308 11.6466 17.4928 11.6601 16.452C11.6601 15.4112 10.8234 14.5597 9.78422 14.5462C9.00148 14.5462 8.28623 15.0328 8.01632 15.7627L6.43736 15.3436C6.65328 14.83 6.69377 14.2623 6.55882 13.7216L11.1877 11.586C12.0784 12.7214 13.7249 12.8971 14.8585 12.005C15.8976 11.167 16.154 9.68018 15.4253 8.5583L18.3943 5.65223C18.7587 5.88201 19.177 6.03069 19.5954 6.05773V7.34181C18.5697 7.44994 17.814 8.38259 17.9354 9.40985C18.0569 10.4371 18.9746 11.194 20.0002 11.0724C21.0259 10.9507 21.7816 10.0316 21.6602 9.00435C21.5657 8.12577 20.8774 7.43642 20.0002 7.34181V6.05773C20.3781 6.03069 20.729 5.92256 21.0529 5.74685L24.3053 9.46391C23.4281 10.6128 23.644 12.2483 24.7911 13.1269C25.9382 14.0055 27.5711 13.7892 28.4483 12.6403C28.9882 11.9375 29.1366 11.0048 28.8262 10.1668L29.8384 9.59908C30.4996 10.3966 31.6872 10.4912 32.4835 9.82886C33.2797 9.16655 33.3742 7.97709 32.7129 7.17961C32.0516 6.38213 30.864 6.28751 30.0678 6.94982C29.393 7.51752 29.2041 8.4772 29.6089 9.26116L28.6643 9.80183C27.976 8.53127 26.3835 8.0717 25.1285 8.77457C24.926 8.8827 24.7371 9.01786 24.5752 9.18006L21.3903 5.5441C21.7006 5.3008 21.9571 4.9764 22.1325 4.62497L24.926 5.08453C25.1555 6.09828 26.1541 6.73356 27.1663 6.50378C28.1784 6.27399 28.8127 5.27376 28.5833 4.26002C28.3539 3.24627 27.3552 2.61099 26.3431 2.84077C25.4929 3.03001 24.8856 3.78694 24.8856 4.66552L22.2944 4.23299C22.6993 2.85429 21.9166 1.3945 20.54 0.975482C19.1635 0.569984 17.706 1.35395 17.2877 2.73264C17.0043 3.70584 17.3012 4.76013 18.0434 5.42245L15.1554 8.24742C14.71 7.73379 14.0758 7.40939 13.401 7.35532V5.3819C14.4266 5.27376 15.1824 4.34112 15.0609 3.31386C14.9395 2.28659 14.0218 1.52966 12.9961 1.65131C11.9705 1.75945 11.2147 2.69209 11.3362 3.71935C11.4307 4.59793 12.1189 5.28728 12.9961 5.3819V7.30126C11.5656 7.40939 10.486 8.66643 10.5939 10.0992C10.6209 10.4912 10.7424 10.8696 10.9313 11.2076L6.39687 13.2891C6.23493 12.8971 5.97851 12.5592 5.65462 12.2889L7.42252 9.09897C7.58447 9.13951 7.73292 9.16655 7.89486 9.16655C8.93401 9.16655 9.78422 8.32852 9.78422 7.28774C9.78422 6.24696 8.9475 5.39541 7.90836 5.39541C6.86921 5.39541 6.019 6.23344 6.019 7.27422C6.019 7.97709 6.41037 8.62588 7.03115 8.95028L5.30374 12.0456C4.06217 11.3157 2.45622 11.7212 1.72747 12.9647C0.998714 14.2082 1.40358 15.8167 2.64515 16.5466C3.29293 16.9251 4.06217 17.0062 4.76393 16.7899L6.81523 20.7773C6.3024 21.1558 5.93803 21.7235 5.81657 22.3452L4.33208 21.9127C4.37256 21.764 4.38606 21.6018 4.38606 21.4531C4.38606 20.4124 3.54934 19.5743 2.5102 19.5743C1.47105 19.5743 0.634338 20.4124 0.634338 21.4531C0.634338 22.4939 1.47105 23.332 2.5102 23.332C3.22545 23.332 3.87323 22.9265 4.18363 22.3047L5.76259 22.7643C5.76259 22.8048 5.76259 22.8454 5.76259 22.8859C5.76259 23.778 6.20794 24.6025 6.96368 25.0756L5.95152 26.4002C5.16879 25.7109 3.9812 25.792 3.30643 26.5759C2.61816 27.3599 2.69913 28.5494 3.48187 29.2252C4.2646 29.9145 5.45219 29.8334 6.12696 29.0495C6.70727 28.3872 6.74775 27.414 6.23493 26.6976L7.32805 25.2648C7.65194 25.4135 8.01632 25.4811 8.38069 25.4811C8.43468 25.4811 8.48866 25.4811 8.54264 25.4676L9.35236 30.0632C7.97583 30.4687 7.1796 31.9285 7.58447 33.3072C7.98933 34.6859 9.44683 35.4834 10.8234 35.0779C11.3497 34.9157 11.822 34.6048 12.1594 34.1588L15.9381 35.8483C15.9111 35.9835 15.8841 36.1322 15.8841 36.2673C15.8841 37.3081 16.7208 38.1597 17.76 38.1597C18.7991 38.1597 19.6493 37.3216 19.6493 36.2809C19.6493 35.2401 18.8126 34.3885 17.7735 34.3885C17.0447 34.3885 16.3835 34.8076 16.0731 35.4564L12.3888 33.8073C12.5508 33.51 12.6587 33.1856 12.6857 32.8476L17.4901 31.6717C18.1784 32.9423 19.7573 33.4018 21.0259 32.7125C21.1608 32.6449 21.2823 32.5638 21.3903 32.4692L23.1851 34.0236C22.7533 34.9698 23.1582 36.0916 24.1163 36.5377C25.061 36.9702 26.1811 36.5647 26.6265 35.605C27.0718 34.6454 26.6535 33.537 25.6953 33.0909C24.8856 32.726 23.9409 32.9558 23.4011 33.6586L21.6872 32.1853C21.9436 31.915 22.1325 31.5771 22.254 31.2257L29.393 31.5636C29.4065 32.6043 30.2432 33.4424 31.2824 33.4289C32.3215 33.4153 33.1582 32.5773 33.1447 31.5365C33.1852 30.5363 32.3485 29.6983 31.3094 29.6983Z" fill="#FF0012"/>
</svg>
