<svg width="63" height="76" viewBox="0 0 63 76" fill="none" xmlns="http://www.w3.org/2000/svg">
<path d="M2 3C2 2.44772 2.44772 2 3 2H59.0645C59.6168 2 60.0645 2.44772 60.0645 3V73C60.0645 73.5523 59.6168 74 59.0645 74H3C2.44772 74 2 73.5523 2 73V3Z" fill="white"/>
<path fill-rule="evenodd" clip-rule="evenodd" d="M3 0H59.0645C60.7214 0 62.0645 1.34315 62.0645 3V73C62.0645 74.6569 60.7214 76 59.0645 76H3C1.34315 76 0 74.6569 0 73V3C0 1.34315 1.34314 0 3 0ZM3 2C2.44772 2 2 2.44772 2 3V73C2 73.5523 2.44772 74 3 74H59.0645C59.6168 74 60.0645 73.5523 60.0645 73V3C60.0645 2.44772 59.6168 2 59.0645 2H3Z" fill="#C0D1ED"/>
<path d="M34.5149 34.4303C33.5376 35.1418 28.5297 35.1418 27.5523 34.4303C25.847 36.7281 20.5806 35.4772 20.5806 41.0132V43.8064H41.4868C41.4868 43.8064 41.4868 43.2974 41.4868 41.0132C41.4867 35.4773 36.2203 36.7282 34.5149 34.4303Z" fill="#DCE7EF"/>
<path d="M34.515 34.4303C34.1856 33.9864 33.9883 33.411 33.9883 32.6279H28.079C28.079 33.4111 27.8816 33.9865 27.5522 34.4303C28.5296 35.1418 29.7322 35.5626 31.0336 35.5626C32.3351 35.5626 33.5377 35.1418 34.515 34.4303Z" fill="#D5D5D5"/>
<path d="M36.9563 24.1805C36.9563 20.9097 34.3047 18.2581 31.0338 18.2581C27.763 18.2581 25.1113 20.9096 25.1113 24.1805V27.4961C25.1113 30.7669 27.7629 33.4185 31.0338 33.4185C34.3047 33.4185 36.9563 30.767 36.9563 27.4961C36.9563 26.7743 36.9563 24.9022 36.9563 24.1805Z" fill="#DCE7EF"/>
<path d="M20.5806 51.9355H41.4838V54.2581H20.5806V51.9355Z" fill="#DCE7EF"/>
<path d="M20.5806 57.7419H41.4838V60.0645H20.5806V57.7419Z" fill="#DCE7EF"/>
</svg>
