<svg width="78" height="78" viewBox="0 0 78 78" fill="none" xmlns="http://www.w3.org/2000/svg">
<path d="M56.5 41.9447V66.9447H68V41.9447L70 39.9447L73.5 36.4447L75 35.4447V33.4447L74.5 31.9447L73.5 31.4447L72 31.9447L71.5 32.9447L70 34.4447L67.5 35.9447L67 34.4447L66 32.4447L64.5 30.9447L63 30.4447H61.5L59.5 30.9447L57.5 32.4447L56.5 36.4447L51.5 31.4447L49.5 31.9447L48.5 33.9447L56.5 41.9447Z" fill="#DAEFFF"/>
<path d="M56.7774 25.4856C57.0006 25.7086 57.2931 25.8202 57.5854 25.8202C57.8778 25.8202 58.1703 25.7086 58.3934 25.4856C58.8397 25.0392 58.8397 24.3159 58.3934 23.8697L51.8427 17.3189C51.3963 16.8729 50.673 16.8729 50.2268 17.3189C49.7805 17.7653 49.7805 18.4886 50.2268 18.9348L56.7774 25.4856Z" fill="#99CDFC"/>
<path d="M43.0572 38.5752C43.2803 38.7982 43.5728 38.9097 43.8652 38.9097C44.1575 38.9097 44.45 38.7982 44.6732 38.5752C45.1194 38.1288 45.1194 37.4055 44.6732 36.9592L39.7982 32.0842C39.3519 31.6382 38.6285 31.6382 38.1823 32.0842C37.7361 32.5306 37.7361 33.2539 38.1823 33.7002L43.0572 38.5752Z" fill="#99CDFC"/>
<path d="M16 45.4447L27 29.4447L34.5 40.4447L29.5 46.9447L27 43.4447L20.5 51.4447L16 45.4447Z" fill="#DAEFFF"/>
<path d="M2 66.5L15.5 45.5L20 51L26 43.5L30 47L34.5 40L52.5 66.5H2Z" fill="white"/>
<path d="M35 66L44 49L47.5 45.3962L49.6139 42.5L54.5 37L59.5 42.5L76 66H35Z" fill="white"/>
<path d="M68 66.5V42.5L75 34V32H72L67 38L62.5 41L58.5 39.5L51.5 32H49.5V34L56 42.5V66.5H59.5V55.5H63.5V66.5H68Z" fill="#DAEFFF"/>
<path d="M77.6006 65.3051L68.8993 53.9946V51.5469L69.1554 51.803C69.3786 52.026 69.6711 52.1375 69.9635 52.1375C70.2558 52.1375 70.5483 52.026 70.7715 51.803C71.2177 51.3566 71.2177 50.6333 70.7715 50.1871L68.8995 48.3151V42.344L70.4789 40.7648C70.9251 40.3184 70.9251 39.5951 70.4789 39.1489C70.0325 38.7028 69.3092 38.7028 68.8629 39.1489L66.949 41.0627C66.7348 41.2771 66.6145 41.5676 66.6145 41.8708V46.0301L65.0204 44.4359C64.574 43.9899 63.8507 43.9899 63.4045 44.4359C62.9582 44.8823 62.9582 45.6056 63.4045 46.0519L66.6142 49.2616V66.1043H64.8769V55.5077C64.8769 54.8765 64.3654 54.3651 63.7343 54.3651H60.1758C59.5447 54.3651 59.0333 54.8765 59.0333 55.5077V66.1043H57.2959V41.8706C57.2959 41.5676 57.1756 41.2771 56.9614 41.0626L50.1068 34.208C49.7983 33.8997 49.7985 33.3977 50.107 33.0891C50.415 32.7807 50.9175 32.7804 51.226 33.0891L56.6112 38.4743C57.6479 40.3612 59.6544 41.6433 61.9551 41.6433C64.2558 41.6433 66.2623 40.3612 67.299 38.4743L72.6842 33.0891C72.9925 32.7804 73.4949 32.7807 73.8031 33.0891C73.9526 33.2384 74.035 33.4372 74.035 33.6486C74.035 33.8599 73.9527 34.0586 73.8031 34.2082L72.633 35.3785C72.1868 35.8247 72.1868 36.5482 72.6331 36.9943C73.0791 37.4402 73.8025 37.4406 74.2489 36.9941L75.4189 35.824C75.9999 35.2431 76.3202 34.4704 76.3202 33.6486C76.3202 32.8269 76.0001 32.0542 75.4191 31.4732C74.2195 30.2741 72.268 30.2738 71.0681 31.4732L67.9688 34.5726C67.4996 31.6758 64.9821 29.4567 61.9549 29.4567C58.9277 29.4567 56.4102 31.6759 55.941 34.5726L52.8417 31.4732C51.6422 30.2736 49.6902 30.2738 48.4906 31.4733C47.2912 32.6729 47.2914 34.6247 48.4906 35.8241L51.015 38.3484L42.3993 49.5474L34.1043 37.4015C33.7483 36.8802 33.0375 36.7461 32.5165 37.1023C31.9953 37.4581 31.8614 38.1691 32.2173 38.6901L33.0951 39.9755L29.3925 45.3968L27.8144 43.0857C27.4593 42.5659 26.8714 42.2556 26.2419 42.2556C25.6124 42.2556 25.0245 42.5659 24.6694 43.0859L20.29 49.4985L17.1235 44.8617L26.778 30.7253L29.2086 34.2844C29.5643 34.8054 30.2753 34.9393 30.7965 34.5836C31.3177 34.2277 31.4516 33.5167 31.0957 32.9957L27.9206 28.3465V22.6263H35.8883C36.7742 22.6263 37.4951 21.9055 37.4951 21.0195V15.4786C37.4951 14.5927 36.7743 13.8718 35.8883 13.8718H26.778C26.1468 13.8718 25.6354 14.3832 25.6354 15.0144V28.3463L0.334605 65.3928C-0.0672777 65.981 -0.110239 66.738 0.22248 67.3681C0.555199 67.9982 1.20434 68.3896 1.91685 68.3896H15.9955C16.6267 68.3896 17.1381 67.8781 17.1381 67.247C17.1381 66.6158 16.6267 66.1044 15.9955 66.1044H2.6158L15.7399 46.8876L18.7176 51.2477C19.0727 51.7675 19.6606 52.0778 20.2903 52.0778C20.9197 52.0778 21.5076 51.7675 21.8628 51.2475L26.242 44.8351L27.8202 47.1461C28.1753 47.6659 28.7632 47.9763 29.3927 47.9763C30.0221 47.9763 30.61 47.6659 30.9651 47.146L34.4788 42.0012L50.9398 66.1043H21.3276C20.6964 66.1043 20.185 66.6157 20.185 67.2468C20.185 67.878 20.6964 68.3894 21.3276 68.3894H76.0819C76.8174 68.3894 77.4762 67.9795 77.8009 67.3197C78.1259 66.6597 78.049 65.8878 77.6006 65.3051ZM61.9551 31.7417C64.0548 31.7417 65.7632 33.4501 65.7632 35.5499C65.7632 37.6498 64.0548 39.3582 61.9551 39.3582C59.8553 39.3582 58.1469 37.6498 58.1469 35.5499C58.1469 33.4501 59.8553 31.7417 61.9551 31.7417ZM27.9204 16.157H35.2097V20.3411H27.9204V16.157ZM55.0108 66.1044H53.707L43.7553 51.5326L52.6447 39.9778L55.0108 42.3438V66.1044ZM62.5916 66.1044H61.3184V56.6504H62.5916V66.1044ZM68.8993 66.1044V57.7423L75.3325 66.1044H68.8993Z" fill="#99CDFC"/>
<path d="M15.4922 18.0208C15.7154 18.2438 16.0079 18.3553 16.3003 18.3553C16.5926 18.3553 16.8851 18.2438 17.1083 18.0208C17.5545 17.5744 17.5545 16.8511 17.1083 16.4049L12.538 11.8345C12.0916 11.3885 11.3683 11.3885 10.9221 11.8345C10.4758 12.2809 10.4758 13.0042 10.9221 13.4505L15.4922 18.0208Z" fill="#99CDFC"/>
<path d="M11.5314 26.1547C11.0852 26.6011 11.0852 27.3244 11.5314 27.7706L14.7307 30.9698C14.9538 31.1928 15.2463 31.3044 15.5387 31.3044C15.831 31.3044 16.1235 31.1928 16.3467 30.9698C16.7929 30.5234 16.7929 29.8001 16.3467 29.3539L13.1475 26.1547C12.7011 25.7088 11.9778 25.7088 11.5314 26.1547Z" fill="#99CDFC"/>
<path d="M39.6088 62.3827C39.9012 62.3827 40.1937 62.2711 40.4169 62.0481C40.8631 61.6017 40.8631 60.8784 40.4169 60.4322L32.952 52.9674C32.5057 52.5213 31.7823 52.5213 31.3361 52.9674C30.8899 53.4137 30.8899 54.1371 31.3361 54.5833L38.801 62.0481C39.024 62.2711 39.3165 62.3827 39.6088 62.3827Z" fill="#99CDFC"/>
</svg>
