<svg width="78" height="79" viewBox="0 0 78 79" fill="none" xmlns="http://www.w3.org/2000/svg">
<path d="M56.5 42.4447V67.4447H68V42.4447L70 40.4447L73.5 36.9447L75 35.9447V33.9447L74.5 32.4447L73.5 31.9447L72 32.4447L71.5 33.4447L70 34.9447L67.5 36.4447L67 34.9447L66 32.9447L64.5 31.4447L63 30.9447H61.5L59.5 31.4447L57.5 32.9447L56.5 36.9447L51.5 31.9447L49.5 32.4447L48.5 34.4447L56.5 42.4447Z" fill="#DCE7EF"/>
<path d="M56.7774 25.9856C57.0006 26.2086 57.2931 26.3202 57.5854 26.3202C57.8778 26.3202 58.1703 26.2086 58.3934 25.9856C58.8397 25.5392 58.8397 24.8159 58.3934 24.3697L51.8427 17.8189C51.3963 17.3729 50.673 17.3729 50.2268 17.8189C49.7805 18.2653 49.7805 18.9886 50.2268 19.4348L56.7774 25.9856Z" fill="#BFD0ED"/>
<path d="M43.0572 39.0751C43.2803 39.2982 43.5728 39.4097 43.8652 39.4097C44.1575 39.4097 44.45 39.2982 44.6732 39.0751C45.1194 38.6288 45.1194 37.9054 44.6732 37.4592L39.7982 32.5842C39.3519 32.1382 38.6285 32.1382 38.1823 32.5842C37.7361 33.0306 37.7361 33.7539 38.1823 34.2001L43.0572 39.0751Z" fill="#BFD0ED"/>
<path d="M16 45.9447L27 29.9447L34.5 40.9447L29.5 47.4447L27 43.9447L20.5 51.9447L16 45.9447Z" fill="#DCE7EF"/>
<path d="M77.6006 65.8051L68.8993 54.4946V52.0469L69.1554 52.303C69.3786 52.526 69.6711 52.6375 69.9635 52.6375C70.2558 52.6375 70.5483 52.526 70.7715 52.303C71.2177 51.8566 71.2177 51.1333 70.7715 50.6871L68.8995 48.8151V42.844L70.4789 41.2648C70.9251 40.8184 70.9251 40.0951 70.4789 39.6489C70.0325 39.2028 69.3092 39.2028 68.8629 39.6489L66.949 41.5628C66.7348 41.7771 66.6145 42.0676 66.6145 42.3708V46.5301L65.0204 44.936C64.574 44.4899 63.8507 44.4899 63.4045 44.936C62.9582 45.3823 62.9582 46.1057 63.4045 46.5519L66.6142 49.7616V66.6043H64.8769V56.0077C64.8769 55.3765 64.3654 54.8651 63.7343 54.8651H60.1758C59.5447 54.8651 59.0333 55.3765 59.0333 56.0077V66.6043H57.2959V42.3706C57.2959 42.0676 57.1756 41.7771 56.9614 41.5626L50.1068 34.7081C49.7983 34.3997 49.7985 33.8977 50.107 33.5891C50.415 33.2807 50.9175 33.2804 51.226 33.5891L56.6112 38.9743C57.6479 40.8612 59.6544 42.1433 61.9551 42.1433C64.2558 42.1433 66.2623 40.8612 67.299 38.9743L72.6842 33.5891C72.9925 33.2804 73.4949 33.2807 73.8031 33.5891C73.9526 33.7384 74.035 33.9372 74.035 34.1486C74.035 34.36 73.9527 34.5586 73.8031 34.7082L72.633 35.8785C72.1868 36.3247 72.1868 37.0482 72.6331 37.4943C73.0791 37.9402 73.8025 37.9406 74.2489 37.4941L75.4189 36.324C75.9999 35.7431 76.3202 34.9704 76.3202 34.1486C76.3202 33.3269 76.0001 32.5542 75.4191 31.9732C74.2195 30.7741 72.268 30.7738 71.0681 31.9732L67.9688 35.0726C67.4996 32.1758 64.9821 29.9568 61.9549 29.9568C58.9277 29.9568 56.4102 32.176 55.941 35.0726L52.8417 31.9732C51.6422 30.7736 49.6902 30.7738 48.4906 31.9733C47.2912 33.1729 47.2914 35.1247 48.4906 36.3241L51.015 38.8485L42.3993 50.0474L34.1043 37.9015C33.7483 37.3802 33.0375 37.2461 32.5165 37.6023C31.9953 37.9582 31.8614 38.6691 32.2173 39.1902L33.0951 40.4755L29.3925 45.8968L27.8144 43.5857C27.4593 43.0659 26.8714 42.7556 26.2419 42.7556C25.6124 42.7556 25.0245 43.0659 24.6694 43.5859L20.29 49.9985L17.1235 45.3618L26.778 31.2253L29.2086 34.7844C29.5643 35.3054 30.2753 35.4393 30.7965 35.0836C31.3177 34.7277 31.4516 34.0167 31.0957 33.4957L27.9206 28.8465V23.1263H35.8883C36.7742 23.1263 37.4951 22.4055 37.4951 21.5195V15.9786C37.4951 15.0927 36.7743 14.3718 35.8883 14.3718H26.778C26.1468 14.3718 25.6354 14.8833 25.6354 15.5144V28.8463L0.334605 65.8928C-0.0672777 66.481 -0.110239 67.238 0.22248 67.8681C0.555199 68.4982 1.20434 68.8896 1.91685 68.8896H15.9955C16.6267 68.8896 17.1381 68.3782 17.1381 67.747C17.1381 67.1158 16.6267 66.6044 15.9955 66.6044H2.6158L15.7399 47.3876L18.7176 51.7477C19.0727 52.2675 19.6606 52.5778 20.2903 52.5778C20.9197 52.5778 21.5076 52.2675 21.8628 51.7476L26.242 45.3351L27.8202 47.6462C28.1753 48.166 28.7632 48.4763 29.3927 48.4763C30.0221 48.4763 30.61 48.166 30.9651 47.646L34.4788 42.5012L50.9398 66.6043H21.3276C20.6964 66.6043 20.185 67.1157 20.185 67.7468C20.185 68.378 20.6964 68.8894 21.3276 68.8894H76.0819C76.8174 68.8894 77.4762 68.4795 77.8009 67.8197C78.1259 67.1597 78.049 66.3878 77.6006 65.8051ZM61.9551 32.2418C64.0548 32.2418 65.7632 33.9501 65.7632 36.0499C65.7632 38.1498 64.0548 39.8582 61.9551 39.8582C59.8553 39.8582 58.1469 38.1498 58.1469 36.0499C58.1469 33.9501 59.8553 32.2418 61.9551 32.2418ZM27.9204 16.657H35.2097V20.8411H27.9204V16.657ZM55.0108 66.6044H53.707L43.7553 52.0326L52.6447 40.4778L55.0108 42.8438V66.6044ZM62.5916 66.6044H61.3184V57.1504H62.5916V66.6044ZM68.8993 66.6044V58.2423L75.3325 66.6044H68.8993Z" fill="#BFD0ED"/>
<path d="M15.4922 18.5208C15.7154 18.7438 16.0079 18.8553 16.3003 18.8553C16.5926 18.8553 16.8851 18.7438 17.1083 18.5208C17.5545 18.0744 17.5545 17.3511 17.1083 16.9049L12.538 12.3345C12.0916 11.8885 11.3683 11.8885 10.9221 12.3345C10.4758 12.7809 10.4758 13.5042 10.9221 13.9505L15.4922 18.5208Z" fill="#BFD0ED"/>
<path d="M11.5314 26.6547C11.0852 27.1011 11.0852 27.8244 11.5314 28.2706L14.7307 31.4698C14.9538 31.6929 15.2463 31.8044 15.5387 31.8044C15.831 31.8044 16.1235 31.6929 16.3467 31.4698C16.7929 31.0235 16.7929 30.3001 16.3467 29.8539L13.1475 26.6547C12.7011 26.2088 11.9778 26.2088 11.5314 26.6547Z" fill="#BFD0ED"/>
<path d="M39.6088 62.8827C39.9012 62.8827 40.1937 62.7711 40.4169 62.5481C40.8631 62.1017 40.8631 61.3784 40.4169 60.9322L32.952 53.4674C32.5057 53.0213 31.7823 53.0213 31.3361 53.4674C30.8899 53.9137 30.8899 54.6371 31.3361 55.0833L38.801 62.5481C39.024 62.7711 39.3165 62.8827 39.6088 62.8827Z" fill="#BFD0ED"/>
</svg>
